<?xml version="1.0" encoding="utf-8"?>
<!-- Generator: Adobe Illustrator 24.1.0, SVG Export Plug-In . SVG Version: 6.00 Build 0)  -->
<svg version="1.1" id="Layer_1" xmlns="http://www.w3.org/2000/svg" xmlns:xlink="http://www.w3.org/1999/xlink" x="0px" y="0px"
	 viewBox="0 0 182 182" style="enable-background:new 0 0 182 182;" xml:space="preserve">
<style type="text/css">
	.st0{fill-rule:evenodd;clip-rule:evenodd;fill:#666666;}
</style>
<desc>Created with Sketch.</desc>
<g id="Desktop">
	<g id="RAE-Pattern">
		<circle id="Oval-Copy-510" class="st0" cx="85" cy="1" r="1"/>
		<circle id="Oval-Copy-707" class="st0" cx="85" cy="113" r="1"/>
		<circle id="Oval-Copy-576" class="st0" cx="85" cy="57" r="1"/>
		<circle id="Oval-Copy-708" class="st0" cx="85" cy="169" r="1"/>
		<circle id="Oval-Copy-512" class="st0" cx="85" cy="29" r="1"/>
		<circle id="Oval-Copy-715" class="st0" cx="85" cy="141" r="1"/>
		<circle id="Oval-Copy-580" class="st0" cx="85" cy="85" r="1"/>
		<circle id="Oval-Copy-513" class="st0" cx="29" cy="29" r="1"/>
		<circle id="Oval-Copy-719" class="st0" cx="29" cy="141" r="1"/>
		<circle id="Oval-Copy-582" class="st0" cx="29" cy="85" r="1"/>
		<circle id="Oval-Copy-514" class="st0" cx="141" cy="29" r="1"/>
		<circle id="Oval-Copy-723" class="st0" cx="141" cy="141" r="1"/>
		<circle id="Oval-Copy-584" class="st0" cx="141" cy="85" r="1"/>
		<circle id="Oval-Copy-515" class="st0" cx="1" cy="1" r="1"/>
		<circle id="Oval-Copy-727" class="st0" cx="1" cy="113" r="1"/>
		<circle id="Oval-Copy-586" class="st0" cx="1" cy="57" r="1"/>
		<circle id="Oval-Copy-728" class="st0" cx="1" cy="169" r="1"/>
		<circle id="Oval-Copy-516" class="st0" cx="113" cy="1" r="1"/>
		<circle id="Oval-Copy-731" class="st0" cx="113" cy="113" r="1"/>
		<circle id="Oval-Copy-588" class="st0" cx="113" cy="57" r="1"/>
		<circle id="Oval-Copy-732" class="st0" cx="113" cy="169" r="1"/>
		<circle id="Oval-Copy-517" class="st0" cx="57" cy="1" r="1"/>
		<circle id="Oval-Copy-735" class="st0" cx="57" cy="113" r="1"/>
		<circle id="Oval-Copy-590" class="st0" cx="57" cy="57" r="1"/>
		<circle id="Oval-Copy-736" class="st0" cx="57" cy="169" r="1"/>
		<circle id="Oval-Copy-518" class="st0" cx="169" cy="1" r="1"/>
		<circle id="Oval-Copy-739" class="st0" cx="169" cy="113" r="1"/>
		<circle id="Oval-Copy-592" class="st0" cx="169" cy="57" r="1"/>
		<circle id="Oval-Copy-740" class="st0" cx="169" cy="169" r="1"/>
		<circle id="Oval-Copy-520" class="st0" cx="85" cy="15" r="1"/>
		<circle id="Oval-Copy-747" class="st0" cx="85" cy="127" r="1"/>
		<circle id="Oval-Copy-596" class="st0" cx="85" cy="71" r="1"/>
		<circle id="Oval-Copy-748" class="st0" cx="85" cy="183" r="1"/>
		<circle id="Oval-Copy-521" class="st0" cx="29" cy="15" r="1"/>
		<circle id="Oval-Copy-751" class="st0" cx="29" cy="127" r="1"/>
		<circle id="Oval-Copy-598" class="st0" cx="29" cy="71" r="1"/>
		<circle id="Oval-Copy-752" class="st0" cx="29" cy="183" r="1"/>
		<circle id="Oval-Copy-522" class="st0" cx="141" cy="15" r="1"/>
		<circle id="Oval-Copy-755" class="st0" cx="141" cy="127" r="1"/>
		<circle id="Oval-Copy-600" class="st0" cx="141" cy="71" r="1"/>
		<circle id="Oval-Copy-756" class="st0" cx="141" cy="183" r="1"/>
		<circle id="Oval-Copy-523" class="st0" cx="29" cy="1" r="1"/>
		<circle id="Oval-Copy-759" class="st0" cx="29" cy="113" r="1"/>
		<circle id="Oval-Copy-602" class="st0" cx="29" cy="57" r="1"/>
		<circle id="Oval-Copy-760" class="st0" cx="29" cy="169" r="1"/>
		<circle id="Oval-Copy-524" class="st0" cx="141" cy="1" r="1"/>
		<circle id="Oval-Copy-763" class="st0" cx="141" cy="113" r="1"/>
		<circle id="Oval-Copy-604" class="st0" cx="141" cy="57" r="1"/>
		<circle id="Oval-Copy-764" class="st0" cx="141" cy="169" r="1"/>
		<circle id="Oval-Copy-526" class="st0" cx="85" cy="43" r="1"/>
		<circle id="Oval-Copy-771" class="st0" cx="85" cy="155" r="1"/>
		<circle id="Oval-Copy-608" class="st0" cx="85" cy="99" r="1"/>
		<circle id="Oval-Copy-527" class="st0" cx="29" cy="43" r="1"/>
		<circle id="Oval-Copy-775" class="st0" cx="29" cy="155" r="1"/>
		<circle id="Oval-Copy-610" class="st0" cx="29" cy="99" r="1"/>
		<circle id="Oval-Copy-528" class="st0" cx="141" cy="43" r="1"/>
		<circle id="Oval-Copy-779" class="st0" cx="141" cy="155" r="1"/>
		<circle id="Oval-Copy-612" class="st0" cx="141" cy="99" r="1"/>
		<circle id="Oval-Copy-529" class="st0" cx="1" cy="15" r="1"/>
		<circle id="Oval-Copy-783" class="st0" cx="1" cy="127" r="1"/>
		<circle id="Oval-Copy-614" class="st0" cx="1" cy="71" r="1"/>
		<circle id="Oval-Copy-784" class="st0" cx="1" cy="183" r="1"/>
		<circle id="Oval-Copy-530" class="st0" cx="113" cy="15" r="1"/>
		<circle id="Oval-Copy-787" class="st0" cx="113" cy="127" r="1"/>
		<circle id="Oval-Copy-616" class="st0" cx="113" cy="71" r="1"/>
		<circle id="Oval-Copy-788" class="st0" cx="113" cy="183" r="1"/>
		<circle id="Oval-Copy-531" class="st0" cx="1" cy="29" r="1"/>
		<circle id="Oval-Copy-791" class="st0" cx="1" cy="141" r="1"/>
		<circle id="Oval-Copy-618" class="st0" cx="1" cy="85" r="1"/>
		<circle id="Oval-Copy-532" class="st0" cx="113" cy="29" r="1"/>
		<circle id="Oval-Copy-795" class="st0" cx="113" cy="141" r="1"/>
		<circle id="Oval-Copy-620" class="st0" cx="113" cy="85" r="1"/>
		<circle id="Oval-Copy-533" class="st0" cx="57" cy="15" r="1"/>
		<circle id="Oval-Copy-799" class="st0" cx="57" cy="127" r="1"/>
		<circle id="Oval-Copy-622" class="st0" cx="57" cy="71" r="1"/>
		<circle id="Oval-Copy-800" class="st0" cx="57" cy="183" r="1"/>
		<circle id="Oval-Copy-534" class="st0" cx="169" cy="15" r="1"/>
		<circle id="Oval-Copy-803" class="st0" cx="169" cy="127" r="1"/>
		<circle id="Oval-Copy-624" class="st0" cx="169" cy="71" r="1"/>
		<circle id="Oval-Copy-804" class="st0" cx="169" cy="183" r="1"/>
		<circle id="Oval-Copy-535" class="st0" cx="57" cy="29" r="1"/>
		<circle id="Oval-Copy-807" class="st0" cx="57" cy="141" r="1"/>
		<circle id="Oval-Copy-626" class="st0" cx="57" cy="85" r="1"/>
		<circle id="Oval-Copy-536" class="st0" cx="169" cy="29" r="1"/>
		<circle id="Oval-Copy-811" class="st0" cx="169" cy="141" r="1"/>
		<circle id="Oval-Copy-628" class="st0" cx="169" cy="85" r="1"/>
		<circle id="Oval-Copy-537" class="st0" cx="1" cy="43" r="1"/>
		<circle id="Oval-Copy-815" class="st0" cx="1" cy="155" r="1"/>
		<circle id="Oval-Copy-630" class="st0" cx="1" cy="99" r="1"/>
		<circle id="Oval-Copy-538" class="st0" cx="113" cy="43" r="1"/>
		<circle id="Oval-Copy-819" class="st0" cx="113" cy="155" r="1"/>
		<circle id="Oval-Copy-632" class="st0" cx="113" cy="99" r="1"/>
		<circle id="Oval-Copy-539" class="st0" cx="57" cy="43" r="1"/>
		<circle id="Oval-Copy-823" class="st0" cx="57" cy="155" r="1"/>
		<circle id="Oval-Copy-634" class="st0" cx="57" cy="99" r="1"/>
		<circle id="Oval-Copy-540" class="st0" cx="169" cy="43" r="1"/>
		<circle id="Oval-Copy-827" class="st0" cx="169" cy="155" r="1"/>
		<circle id="Oval-Copy-636" class="st0" cx="169" cy="99" r="1"/>
		<circle id="Oval-Copy-542" class="st0" cx="99" cy="1" r="1"/>
		<circle id="Oval-Copy-835" class="st0" cx="99" cy="113" r="1"/>
		<circle id="Oval-Copy-640" class="st0" cx="99" cy="57" r="1"/>
		<circle id="Oval-Copy-836" class="st0" cx="99" cy="169" r="1"/>
		<circle id="Oval-Copy-543" class="st0" cx="43" cy="1" r="1"/>
		<circle id="Oval-Copy-839" class="st0" cx="43" cy="113" r="1"/>
		<circle id="Oval-Copy-642" class="st0" cx="43" cy="57" r="1"/>
		<circle id="Oval-Copy-840" class="st0" cx="43" cy="169" r="1"/>
		<circle id="Oval-Copy-544" class="st0" cx="155" cy="1" r="1"/>
		<circle id="Oval-Copy-843" class="st0" cx="155" cy="113" r="1"/>
		<circle id="Oval-Copy-644" class="st0" cx="155" cy="57" r="1"/>
		<circle id="Oval-Copy-844" class="st0" cx="155" cy="169" r="1"/>
		<circle id="Oval-Copy-546" class="st0" cx="99" cy="29" r="1"/>
		<circle id="Oval-Copy-851" class="st0" cx="99" cy="141" r="1"/>
		<circle id="Oval-Copy-648" class="st0" cx="99" cy="85" r="1"/>
		<circle id="Oval-Copy-547" class="st0" cx="43" cy="29" r="1"/>
		<circle id="Oval-Copy-855" class="st0" cx="43" cy="141" r="1"/>
		<circle id="Oval-Copy-650" class="st0" cx="43" cy="85" r="1"/>
		<circle id="Oval-Copy-548" class="st0" cx="155" cy="29" r="1"/>
		<circle id="Oval-Copy-859" class="st0" cx="155" cy="141" r="1"/>
		<circle id="Oval-Copy-652" class="st0" cx="155" cy="85" r="1"/>
		<circle id="Oval-Copy-549" class="st0" cx="15" cy="1" r="1"/>
		<circle id="Oval-Copy-863" class="st0" cx="15" cy="113" r="1"/>
		<circle id="Oval-Copy-654" class="st0" cx="15" cy="57" r="1"/>
		<circle id="Oval-Copy-864" class="st0" cx="15" cy="169" r="1"/>
		<circle id="Oval-Copy-550" class="st0" cx="127" cy="1" r="1"/>
		<circle id="Oval-Copy-867" class="st0" cx="127" cy="113" r="1"/>
		<circle id="Oval-Copy-656" class="st0" cx="127" cy="57" r="1"/>
		<circle id="Oval-Copy-868" class="st0" cx="127" cy="169" r="1"/>
		<circle id="Oval-Copy-551" class="st0" cx="71" cy="1" r="1"/>
		<circle id="Oval-Copy-871" class="st0" cx="71" cy="113" r="1"/>
		<circle id="Oval-Copy-658" class="st0" cx="71" cy="57" r="1"/>
		<circle id="Oval-Copy-872" class="st0" cx="71" cy="169" r="1"/>
		<circle id="Oval-Copy-552" class="st0" cx="183" cy="1" r="1"/>
		<circle id="Oval-Copy-875" class="st0" cx="183" cy="113" r="1"/>
		<circle id="Oval-Copy-660" class="st0" cx="183" cy="57" r="1"/>
		<circle id="Oval-Copy-876" class="st0" cx="183" cy="169" r="1"/>
		<circle id="Oval-Copy-553" class="st0" cx="15" cy="29" r="1"/>
		<circle id="Oval-Copy-879" class="st0" cx="15" cy="141" r="1"/>
		<circle id="Oval-Copy-662" class="st0" cx="15" cy="85" r="1"/>
		<circle id="Oval-Copy-554" class="st0" cx="127" cy="29" r="1"/>
		<circle id="Oval-Copy-883" class="st0" cx="127" cy="141" r="1"/>
		<circle id="Oval-Copy-664" class="st0" cx="127" cy="85" r="1"/>
		<circle id="Oval-Copy-555" class="st0" cx="71" cy="29" r="1"/>
		<circle id="Oval-Copy-887" class="st0" cx="71" cy="141" r="1"/>
		<circle id="Oval-Copy-666" class="st0" cx="71" cy="85" r="1"/>
		<circle id="Oval-Copy-556" class="st0" cx="183" cy="29" r="1"/>
		<circle id="Oval-Copy-891" class="st0" cx="183" cy="141" r="1"/>
		<circle id="Oval-Copy-668" class="st0" cx="183" cy="85" r="1"/>
		<circle id="Oval-Copy-558" class="st0" cx="99" cy="15" r="1"/>
		<circle id="Oval-Copy-899" class="st0" cx="99" cy="127" r="1"/>
		<circle id="Oval-Copy-672" class="st0" cx="99" cy="71" r="1"/>
		<circle id="Oval-Copy-900" class="st0" cx="99" cy="183" r="1"/>
		<circle id="Oval-Copy-559" class="st0" cx="43" cy="15" r="1"/>
		<circle id="Oval-Copy-903" class="st0" cx="43" cy="127" r="1"/>
		<circle id="Oval-Copy-674" class="st0" cx="43" cy="71" r="1"/>
		<circle id="Oval-Copy-904" class="st0" cx="43" cy="183" r="1"/>
		<circle id="Oval-Copy-560" class="st0" cx="155" cy="15" r="1"/>
		<circle id="Oval-Copy-907" class="st0" cx="155" cy="127" r="1"/>
		<circle id="Oval-Copy-676" class="st0" cx="155" cy="71" r="1"/>
		<circle id="Oval-Copy-908" class="st0" cx="155" cy="183" r="1"/>
		<circle id="Oval-Copy-562" class="st0" cx="99" cy="43" r="1"/>
		<circle id="Oval-Copy-915" class="st0" cx="99" cy="155" r="1"/>
		<circle id="Oval-Copy-680" class="st0" cx="99" cy="99" r="1"/>
		<circle id="Oval-Copy-563" class="st0" cx="43" cy="43" r="1"/>
		<circle id="Oval-Copy-919" class="st0" cx="43" cy="155" r="1"/>
		<circle id="Oval-Copy-682" class="st0" cx="43" cy="99" r="1"/>
		<circle id="Oval-Copy-564" class="st0" cx="155" cy="43" r="1"/>
		<circle id="Oval-Copy-923" class="st0" cx="155" cy="155" r="1"/>
		<circle id="Oval-Copy-684" class="st0" cx="155" cy="99" r="1"/>
		<circle id="Oval-Copy-565" class="st0" cx="15" cy="15" r="1"/>
		<circle id="Oval-Copy-927" class="st0" cx="15" cy="127" r="1"/>
		<circle id="Oval-Copy-686" class="st0" cx="15" cy="71" r="1"/>
		<circle id="Oval-Copy-928" class="st0" cx="15" cy="183" r="1"/>
		<circle id="Oval-Copy-566" class="st0" cx="127" cy="15" r="1"/>
		<circle id="Oval-Copy-931" class="st0" cx="127" cy="127" r="1"/>
		<circle id="Oval-Copy-688" class="st0" cx="127" cy="71" r="1"/>
		<circle id="Oval-Copy-932" class="st0" cx="127" cy="183" r="1"/>
		<circle id="Oval-Copy-567" class="st0" cx="71" cy="15" r="1"/>
		<circle id="Oval-Copy-935" class="st0" cx="71" cy="127" r="1"/>
		<circle id="Oval-Copy-690" class="st0" cx="71" cy="71" r="1"/>
		<circle id="Oval-Copy-936" class="st0" cx="71" cy="183" r="1"/>
		<circle id="Oval-Copy-568" class="st0" cx="183" cy="15" r="1"/>
		<circle id="Oval-Copy-939" class="st0" cx="183" cy="127" r="1"/>
		<circle id="Oval-Copy-692" class="st0" cx="183" cy="71" r="1"/>
		<circle id="Oval-Copy-940" class="st0" cx="183" cy="183" r="1"/>
		<circle id="Oval-Copy-569" class="st0" cx="15" cy="43" r="1"/>
		<circle id="Oval-Copy-943" class="st0" cx="15" cy="155" r="1"/>
		<circle id="Oval-Copy-694" class="st0" cx="15" cy="99" r="1"/>
		<circle id="Oval-Copy-570" class="st0" cx="127" cy="43" r="1"/>
		<circle id="Oval-Copy-947" class="st0" cx="127" cy="155" r="1"/>
		<circle id="Oval-Copy-696" class="st0" cx="127" cy="99" r="1"/>
		<circle id="Oval-Copy-571" class="st0" cx="71" cy="43" r="1"/>
		<circle id="Oval-Copy-951" class="st0" cx="71" cy="155" r="1"/>
		<circle id="Oval-Copy-698" class="st0" cx="71" cy="99" r="1"/>
		<circle id="Oval-Copy-572" class="st0" cx="183" cy="43" r="1"/>
		<circle id="Oval-Copy-955" class="st0" cx="183" cy="155" r="1"/>
		<circle id="Oval-Copy-700" class="st0" cx="183" cy="99" r="1"/>
	</g>
</g>
</svg>
