<?xml version="1.0" encoding="UTF-8"?>
<svg width="41px" height="34px" viewBox="0 0 41 34" version="1.1" xmlns="http://www.w3.org/2000/svg" xmlns:xlink="http://www.w3.org/1999/xlink">
    <!-- Generator: Sketch 64 (93537) - https://sketch.com -->
    <title>“</title>
    <desc>Created with Sketch.</desc>
    <defs>
        <path d="M19.4238281,50.4912109 L19.4238281,33.8359375 L14.1503906,33.8359375 L14.1503906,33.7480469 C14.1210938,32.4882812 14.6191406,31.1992188 15.6445313,29.8808594 L15.6445313,29.8808594 L22.0605469,21.7070312 L17.0947266,17.8398438 L8.17382812,25.4863281 C6.26953125,27.0976562 4.94384766,28.7602539 4.19677734,30.4741211 C3.44970703,32.1879883 3.07617188,34.421875 3.07617188,37.1757812 L3.07617188,37.1757812 L3.07617188,50.4912109 L19.4238281,50.4912109 Z M41.1328125,50.4912109 L41.1328125,33.8359375 L35.8154297,33.8359375 L35.8154297,33.7480469 C35.8154297,32.4882812 36.328125,31.1992188 37.3535156,29.8808594 L37.3535156,29.8808594 L43.7255859,21.7070312 L38.8037109,17.8398438 L29.8828125,25.4863281 C27.9492188,27.0976562 26.6088867,28.7602539 25.8618164,30.4741211 C25.1147461,32.1879883 24.7412109,34.421875 24.7412109,37.1757812 L24.7412109,37.1757812 L24.7412109,50.4912109 L41.1328125,50.4912109 Z" id="path-1"></path>
    </defs>
    <g id="Page-1" stroke="none" stroke-width="1" fill="none" fill-rule="evenodd">
        <g id="quotes-icon" transform="translate(-3.000000, -17.000000)" fill-rule="nonzero">
            <g id="“">
                <use fill="#000000" xlink:href="#path-1"></use>
                <use fill="#666666" xlink:href="#path-1"></use>
            </g>
        </g>
    </g>
</svg>