<?xml version="1.0" encoding="UTF-8"?>
<svg width="40px" height="40px" viewBox="0 0 40 40" version="1.1" xmlns="http://www.w3.org/2000/svg" xmlns:xlink="http://www.w3.org/1999/xlink">
    <!-- Generator: sketchtool 61.2 (101010) - https://sketch.com -->
    <title>FF1FB44E-07B2-4039-A682-C178675B8B04</title>
    <desc>Created with sketchtool.</desc>
    <defs>
        <polygon id="path-1" points="0.054 0.036 14.4 0.036 14.4 14.4 0.054 14.4"></polygon>
    </defs>
    <g id="Desktop" stroke="none" stroke-width="1" fill="none" fill-rule="evenodd">
        <g id="Mobile-Menu-1" transform="translate(-160.000000, -610.000000)">
            <g id="Group-23" transform="translate(43.000000, 611.000000)">
                <g id="Instagram-Icon" transform="translate(118.000000, 0.000000)">
                    <g id="instagram-logo" transform="translate(12.000000, 12.000000)">
                        <mask id="mask-2" fill="white">
                            <use xlink:href="#path-1"></use>
                        </mask>
                        <g id="Clip-2"></g>
                        <path d="M12.9582,0 L1.4418,0 C0.6471,0 0,0.6471 0,1.4418 L0,12.9582 C0,13.7529 0.6471,14.4 1.4418,14.4 L12.9582,14.4 C13.7529,14.4 14.4,13.7529 14.4,12.9582 L14.4,1.4418 C14.4,0.6471 13.7529,0 12.9582,0 Z M7.2,4.3209 C8.7858,4.3209 10.0791,5.6142 10.0791,7.2 C10.0791,8.7858 8.7858,10.0791 7.2,10.0791 C5.6142,10.0791 4.3209,8.7858 4.3209,7.2 C4.3209,5.6142 5.6142,4.3209 7.2,4.3209 Z M1.8,12.9582 C1.5858,12.9582 1.4418,12.8142 1.4418,12.6 L1.4418,6.4791 L2.9529,6.4791 C2.8791,6.6969 2.8791,6.9858 2.8791,7.2 C2.8791,9.5769 4.8231,11.5209 7.2,11.5209 C9.5769,11.5209 11.5209,9.5769 11.5209,7.2 C11.5209,6.9858 11.5209,6.6969 11.4471,6.4791 L12.9582,6.4791 L12.9582,12.6 C12.9582,12.8142 12.8142,12.9582 12.6,12.9582 L1.8,12.9582 Z M12.9582,3.2418 C12.9582,3.456 12.8142,3.6 12.6,3.6 L11.1582,3.6 C10.944,3.6 10.8,3.456 10.8,3.2418 L10.8,1.8 C10.8,1.5858 10.944,1.4418 11.1582,1.4418 L12.6,1.4418 C12.8142,1.4418 12.9582,1.5858 12.9582,1.8 L12.9582,3.2418 Z" id="Fill-1" fill="#FFFFFF" mask="url(#mask-2)"></path>
                    </g>
                    <circle id="Oval" stroke="#E7751D" stroke-width="1.04" cx="19.2" cy="19.2" r="19.2"></circle>
                </g>
            </g>
        </g>
    </g>
</svg>