<?xml version="1.0" encoding="UTF-8"?>
<svg width="40px" height="40px" viewBox="0 0 40 40" version="1.1" xmlns="http://www.w3.org/2000/svg" xmlns:xlink="http://www.w3.org/1999/xlink">
    <!-- Generator: sketchtool 61.2 (101010) - https://sketch.com -->
    <title>6EE46859-1B04-47C8-83CF-8151CBADCD31</title>
    <desc>Created with sketchtool.</desc>
    <g id="Desktop" stroke="none" stroke-width="1" fill="none" fill-rule="evenodd">
        <g id="Mobile-Menu-1" transform="translate(-100.000000, -610.000000)">
            <g id="Group-23" transform="translate(43.000000, 611.000000)">
                <g id="LinkedIn-Icon" transform="translate(58.000000, 0.000000)">
                    <path d="M27.2,20.0282438 L27.2,25.6 L24.1132,25.6 L24.1132,20.401843 C24.1132,19.0962341 23.6672,18.2050377 22.55,18.2050377 C21.6968,18.2050377 21.1898,18.8050988 20.9664,19.3863229 C20.8852,19.5939478 20.864,19.8825715 20.864,20.1737068 L20.864,25.6 L17.7766,25.6 C17.7766,25.6 17.818,16.795407 17.7766,15.8839087 L20.864,15.8839087 L20.864,17.2606794 C20.8578,17.2713536 20.8492,17.2820279 20.8438,17.2924928 L20.864,17.2924928 L20.864,17.2606794 C21.2742,16.6001308 22.0062,15.6557724 23.646,15.6557724 C25.6774,15.6557724 27.2,17.0440546 27.2,20.0282438 Z M14.5468,11.2 C13.4906,11.2 12.8,11.925222 12.8,12.8785803 C12.8,13.8114272 13.471,14.5577884 14.5062,14.5577884 L14.5266,14.5577884 C15.6032,14.5577884 16.2726,13.8114272 16.2726,12.8785803 C16.2524,11.925222 15.6032,11.2 14.5468,11.2 Z M12.9836,25.6 L16.0696,25.6 L16.0696,15.8839087 L12.9836,15.8839087 L12.9836,25.6 Z" id="linkedin-logo" fill="#FFFFFF"></path>
                    <circle id="Oval" stroke="#E7751D" stroke-width="1.04" cx="19.2" cy="19.2" r="19.2"></circle>
                </g>
            </g>
        </g>
    </g>
</svg>