<?xml version="1.0" encoding="UTF-8"?>
<svg width="15px" height="18px" viewBox="0 0 15 18" version="1.1" xmlns="http://www.w3.org/2000/svg" xmlns:xlink="http://www.w3.org/1999/xlink">
    <!-- Generator: sketchtool 61.2 (101010) - https://sketch.com -->
    <title>7DFBCAE2-197E-4F72-8D2E-9828FC4A1D25</title>
    <desc>Created with sketchtool.</desc>
    <g id="Desktop" stroke="none" stroke-width="1" fill="none" fill-rule="evenodd">
        <g id="Mobile-Menu-1" transform="translate(-44.000000, -453.000000)" fill="#FFFFFF">
            <g id="Group-3" transform="translate(44.000000, 448.000000)">
                <g id="Phone-Icon" transform="translate(0.000000, 5.000000)">
                    <path d="M2.25366,0.125836 L4.056746,0.0008744 C4.340686,-0.01873206 4.542656,0.2593024 4.6199,0.5106424 C5.07699,1.9962444 5.347464,2.7783824 5.440536,4.1605224 C5.4960482,4.9811584 4.381078,5.4824224 3.83068,6.0486484 C4.230368,8.5431484 6.71684,12.0940484 8.9241,13.3228884 C9.644342,12.9992644 10.496868,12.1228784 11.249,12.4557164 C12.51586,13.0160364 13.158386,13.5376144 14.39808,14.4754164 C14.607846,14.6339216 14.80013,14.9188064 14.684618,15.1786504 L13.950438,16.8305524 C13.319016,17.2753584 12.44452,17.8970964 11.872398,17.9745764 C6.880078,18.6501724 -1.874562,6.1473964 0.467818,1.6872764 C0.736402,1.1760904 1.619638,0.5668744 2.253658,0.1258464 L2.25366,0.125836 Z" id="Path"></path>
                </g>
            </g>
        </g>
    </g>
</svg>