<?xml version="1.0" encoding="UTF-8"?>
<svg width="40px" height="40px" viewBox="0 0 40 40" version="1.1" xmlns="http://www.w3.org/2000/svg" xmlns:xlink="http://www.w3.org/1999/xlink">
    <!-- Generator: sketchtool 61.2 (101010) - https://sketch.com -->
    <title>BC52A326-D94E-48C8-902B-63B5A650D589</title>
    <desc>Created with sketchtool.</desc>
    <g id="Desktop" stroke="none" stroke-width="1" fill="none" fill-rule="evenodd">
        <g id="Mobile-Menu-1" transform="translate(-42.000000, -610.000000)">
            <g id="Group-23" transform="translate(43.000000, 611.000000)">
                <g id="Twitter-Icon">
                    <circle id="Oval" stroke="#E7751D" stroke-width="1.04" cx="19.2" cy="19.2" r="19.2"></circle>
                    <path d="M28,14.5034045 C27.3844856,14.7914599 26.7177877,14.9908829 26.0209046,15.0781304 C26.7335364,14.6280439 27.276869,13.9148298 27.5380361,13.0645124 C26.8713382,13.4813618 26.1337708,13.7846509 25.3437075,13.9466821 C24.7190063,13.2431621 23.8213265,12.8 22.8317788,12.8 C20.9301148,12.8 19.3867354,14.4286209 19.3867354,16.4353145 C19.3867354,16.721985 19.418233,16.9975765 19.474666,17.2634737 C16.60839,17.1111368 14.0715257,15.6667051 12.3693461,13.4647432 C12.0714319,14.0006924 11.9021326,14.6280439 11.9021326,15.294172 C11.9021326,16.5544143 12.5123975,17.6692441 13.4350129,18.3173687 C12.870682,18.302135 12.3430982,18.1345643 11.8771971,17.8631275 L11.8771971,17.9074437 C11.8771971,19.6703982 13.0662292,21.1411425 14.6397938,21.4776688 C14.3523787,21.5579919 14.0452777,21.6009233 13.7329271,21.6009233 C13.5124443,21.6009233 13.2972112,21.58015 13.081978,21.5372187 C13.5229435,22.9816503 14.7933443,24.0300058 16.301289,24.0632429 C15.1214436,25.0368148 13.6344973,25.6156953 12.0202484,25.6156953 C11.7433326,25.6156953 11.4716663,25.5990767 11.2,25.5672245 C12.7276307,26.6003462 14.5374268,27.2 16.4850246,27.2 C22.8212796,27.2 26.2873213,21.6604732 26.2873213,16.8577034 L26.2768221,16.3868436 C26.9540192,15.8730525 27.5380361,15.234622 28,14.5034045 Z" id="Fill-1" fill="#FFFFFF"></path>
                </g>
            </g>
        </g>
    </g>
</svg>