<?xml version="1.0" encoding="UTF-8"?>
<svg width="36px" height="36px" viewBox="0 0 36 36" version="1.1" xmlns="http://www.w3.org/2000/svg" xmlns:xlink="http://www.w3.org/1999/xlink">
    <!-- Generator: sketchtool 61.2 (101010) - https://sketch.com -->
    <title>EF2E8632-691A-4B34-9E80-FB512DC105F5</title>
    <desc>Created with sketchtool.</desc>
    <g id="Desktop" stroke="none" stroke-width="1" fill="none" fill-rule="evenodd">
        <g id="Mobile-Home-1" transform="translate(-14.000000, -2047.000000)">
            <g id="Welding-Icon" transform="translate(15.000000, 2048.000000)">
                <path d="M0.2048046,17.1088554 C0.2048046,7.7728014 7.7729106,0.2046954 17.1089646,0.2046954 C26.4450186,0.2046954 34.0131246,7.7728014 34.0131246,17.1088554 C34.0131246,26.4449094 26.4450186,34.0130154 17.1089646,34.0130154 C7.7729106,34.0130154 0.2048046,26.4449094 0.2048046,17.1088554 Z" id="Stroke-1" stroke="#E7751D" stroke-width="0.5"></path>
                <g id="Group-13" transform="translate(1.638000, 2.549820)">
                    <path d="M21.3063396,21.746907 C12.1395456,24.223563 10.1821356,19.036017 10.6817256,15.139215 C10.9257876,13.234767 11.2293636,11.315031 11.5678836,10.142769 C11.6344956,9.912903 11.6809056,9.723441 12.0183336,9.696141 C12.8902956,9.625161 13.7638956,9.577113 14.6298516,9.452625 C16.1613816,9.232587 17.7027396,9.026199 19.2135216,8.692593 C20.4638616,8.416317 21.6972756,8.047767 22.7745336,7.297563 C23.7071016,6.647823 23.9396976,5.382195 23.2773996,4.458909 C23.0060376,4.079439 22.6931796,3.748017 22.3562976,3.448263 C21.4013436,2.599233 19.6896336,1.787877 18.6675216,2.555007 C17.3194476,3.567291 15.8523456,3.702699 14.4130896,3.981159 C12.1002336,4.428333 9.8589036,4.921371 8.2973436,7.590765 C7.4575956,9.026199 6.5457756,10.856937 6.3301056,12.590487 C6.1007856,14.434329 5.9222436,16.173339 5.9091396,17.114643 C5.8627296,20.461623 8.2618536,23.342865 11.5596936,23.916165 C13.0175136,24.169509 18.3273636,25.084059 21.3063396,21.746907" id="Fill-3" fill="#E7751D"></path>
                    <path d="M14.7236544,0.7736274 C12.9557064,0.6032754 10.6488564,1.9043934 9.5382924,3.1874934 C9.1227864,3.6679734 7.0053984,5.8907394 4.6019064,14.5595814 C4.3856904,15.3403614 4.2546504,16.1424354 4.0668264,16.9952874 C3.4471164,14.4836874 2.0286084,12.5459334 0.0995904,10.7867214 C0.7236684,10.7004534 1.2538344,10.6130934 1.7867304,10.5568554 C2.4615864,10.4858754 4.0417104,10.3619334 4.7160204,10.2871314 C4.8006504,10.2783954 4.9071204,10.1446254 4.9398804,10.0474374 C5.2936884,8.9898354 5.6622384,-2.0824986 14.7236544,0.7736274" id="Fill-5" fill="#E7751D"></path>
                    <path d="M15.3451116,19.0787688 C15.5727936,17.6962968 16.4027136,12.0648528 16.4027136,12.0648528 C16.4027136,12.0648528 23.6142816,9.9485568 24.1914036,9.7874868 C24.0144996,10.9886868 22.9432476,16.6982088 22.8580716,16.8401688 C22.7193876,17.0727648 16.7701716,18.7238688 15.3451116,19.0787688" id="Fill-7" fill="#888B8D"></path>
                    <path d="M18.3345162,2.1178248 C17.5799442,3.5783748 13.0066482,2.7457248 9.6230862,5.3293968 C10.1079342,3.9016068 11.5275342,1.9977048 14.6768622,1.3747188 C15.8840682,1.1355708 17.3380662,1.3457808 18.3345162,2.1178248" id="Fill-9" fill="#E7751D"></path>
                    <path d="M15.9814746,11.6661636 C15.9814746,11.6661636 21.8815506,9.9047676 24.1010406,9.3008916 C23.7985566,9.1425516 23.5004406,8.9891256 23.2017786,8.8411596 C23.0729226,8.7778236 22.8747246,8.8122216 22.7207526,8.8515336 C20.0338866,9.5362176 17.9672766,10.2520236 15.2716746,10.8990336 C14.7409626,11.0262516 14.6481426,11.3008896 14.5820766,11.7311376 C14.3522106,13.2435576 13.7472426,16.9803816 13.4895306,18.4884336 C13.3912506,19.0611876 13.4294706,19.1348976 14.0125986,19.1769396 C14.2386426,19.1933196 14.4652326,19.2129756 14.6934606,19.2331776 C15.0827586,16.9203216 15.9814746,11.6661636 15.9814746,11.6661636" id="Fill-11" fill="#888B8D"></path>
                </g>
                <path d="M31.487001,24.752364 L32.744985,20.585292 L31.000515,24.6246 C31.000515,24.6246 32.428305,18.418764 30.173325,17.10891 C32.132919,19.499844 30.653259,23.728068 30.653259,23.728068 L28.873845,19.188078 L30.385719,24.579282 L27.181791,20.216196 L29.673735,24.368526 L26.992875,22.40511 L29.702127,25.043382 L23.661183,22.560174 L28.569723,25.377534 L23.811879,25.40265 L29.023995,26.035464 L25.141935,26.945646 L28.976493,26.471172 L23.679201,28.995876 L29.802591,26.714688 L26.034645,30.566718 L30.210453,27.042834 C30.210453,27.042834 29.663361,27.78594 29.455335,28.207998 C29.745807,27.86511 30.444687,27.04338 30.708405,26.678652 L30.790305,26.563446 C31.359783,25.759734 31.864287,24.907428 32.291805,24.01035 L31.487001,24.752364 Z" id="Fill-14" fill="#E7751D"></path>
            </g>
        </g>
    </g>
</svg>