<?xml version="1.0" encoding="UTF-8"?>
<svg width="57px" height="57px" viewBox="0 0 57 57" version="1.1" xmlns="http://www.w3.org/2000/svg" xmlns:xlink="http://www.w3.org/1999/xlink">
    <!-- Generator: sketchtool 61.2 (101010) - https://sketch.com -->
    <title>A521691C-78EC-4DD6-87A4-FFC32A02E6CE</title>
    <desc>Created with sketchtool.</desc>
    <g id="Desktop" stroke="none" stroke-width="1" fill="none" fill-rule="evenodd">
        <g id="Company-1" transform="translate(-882.000000, -1334.000000)">
            <g id="Safety_Icon" transform="translate(883.000000, 1335.000000)">
                <g id="Group-18">
                    <g>
                        <circle id="Oval" stroke="#999999" stroke-width="1.536" cx="27.52" cy="27.52" r="27.52"></circle>
                        <g id="noun_Safety_1036567" transform="translate(13.000000, 12.000000)" fill="#E7751D" fill-rule="nonzero" stroke="#E7751D" stroke-width="0.4">
                            <path d="M29.5,14 L27.8435,14 C27.068,9.0045 23.381,4.866 18.5,3.4995 L18.5,1.5 C18.5,1.224 18.2765,1 18,1 L15.5,1 L15.5,0 L14.5,0 L14.5,1 L12,1 C11.7235,1 11.5,1.224 11.5,1.5 L11.5,3.4995 C6.619,4.866 2.932,9.0045 2.1565,14 L0.5,14 C0.2235,14 0,14.224 0,14.5 L0,17.5 C0,17.776 0.2235,18 0.5,18 L29.5,18 C29.7765,18 30,17.776 30,17.5 L30,14.5 C30,14.224 29.7765,14 29.5,14 Z M29,17 L1,17 L1,15 L2.593,15 C2.846,15 3.0595,14.811 3.0895,14.5595 C3.652,9.861 6.997,5.9065 11.5,4.532 L11.5,8.5 L12.5,8.5 L12.5,3.8755 L12.5,2 L14.5,2 L14.5,6.5 L15.5,6.5 L15.5,2 L17.5,2 L17.5,3.8755 L17.5,8.5 L18.5,8.5 L18.5,4.532 C23.003,5.9065 26.348,9.8605 26.9105,14.559 C26.941,14.811 27.1545,15 27.407,15 L29,15 L29,17 Z" id="Shape"></path>
                            <path d="M29.5,21 L27,21 L27,20 C27,19.724 26.7765,19.5 26.5,19.5 L3.5,19.5 C3.2235,19.5 3,19.724 3,20 L3,21 L0.5,21 C0.2235,21 0,21.224 0,21.5 L0,24.5 C0,24.776 0.2235,25 0.5,25 L3,25 L3,25.5 C3,25.5985 3.0295,25.6955 3.084,25.7775 L5.084,28.7775 C5.177,28.9165 5.333,29 5.5,29 L11.5,29 C11.652,29 11.7955,28.931 11.8905,28.8125 L13.8905,26.3125 C13.921,26.274 13.9455,26.2315 13.964,26.186 L14.8385,24 L15.1615,24 L16.0355,26.186 C16.054,26.2315 16.079,26.274 16.109,26.3125 L18.109,28.8125 C18.2045,28.931 18.348,29 18.5,29 L24.5,29 C24.667,29 24.823,28.9165 24.916,28.7775 L26.916,25.7775 C26.9705,25.6955 27,25.5985 27,25.5 L27,25 L29.5,25 C29.7765,25 30,24.776 30,24.5 L30,21.5 C30,21.224 29.7765,21 29.5,21 Z M1,24 L1,22 L3,22 L3,24 L1,24 Z M26,25.3485 L24.2325,28 L18.74,28 L16.9365,25.7455 L15.9645,23.314 C15.888,23.1245 15.7045,23 15.5,23 L14.5,23 C14.2955,23 14.112,23.1245 14.0355,23.314 L13.0635,25.7455 L11.26,28 L5.7675,28 L4,25.3485 L4,24.5 L4,21.5 L4,20.5 L26,20.5 L26,21.5 L26,24.5 L26,25.3485 Z M29,24 L27,24 L27,22 L29,22 L29,24 Z" id="Shape"></path>
                        </g>
                    </g>
                </g>
            </g>
        </g>
    </g>
</svg>